<mxfile host="Electron" modified="2024-04-23T21:46:52.955Z" agent="Mozilla/5.0 (Macintosh; Intel Mac OS X 10_15_7) AppleWebKit/537.36 (KHTML, like Gecko) draw.io/24.2.5 Chrome/120.0.6099.109 Electron/28.1.0 Safari/537.36" etag="bEDi-mhDNV6lQoj1LXe1" version="24.2.5" type="device">
  <diagram name="Page-1" id="AVqs-29l7rqCjDmvb-u1">
    <mxGraphModel dx="4130" dy="1640" grid="1" gridSize="10" guides="1" tooltips="1" connect="1" arrows="1" fold="1" page="0" pageScale="1" pageWidth="827" pageHeight="1169" math="0" shadow="0">
      <root>
        <mxCell id="0" />
        <mxCell id="1" parent="0" />
        <mxCell id="cm763DPiKegs-Cz6ihyl-32" value="" style="rounded=0;whiteSpace=wrap;html=1;align=center;verticalAlign=middle;fontFamily=Helvetica;fontSize=12;fillColor=none;dashed=1;dashPattern=8 8;" vertex="1" parent="1">
          <mxGeometry x="-732" y="-90" width="532" height="370" as="geometry" />
        </mxCell>
        <mxCell id="cm763DPiKegs-Cz6ihyl-33" value="VM" style="text;html=1;align=center;verticalAlign=middle;resizable=0;points=[];autosize=1;strokeColor=none;fillColor=none;fontSize=16;fontFamily=Helvetica;fontColor=default;" vertex="1" parent="1">
          <mxGeometry x="-732" y="-120" width="50" height="30" as="geometry" />
        </mxCell>
        <mxCell id="cm763DPiKegs-Cz6ihyl-35" value="Reverse Proxy" style="rounded=0;whiteSpace=wrap;html=1;strokeColor=#82b366;align=center;verticalAlign=middle;fontFamily=Helvetica;fontSize=12;fillColor=#d5e8d4;" vertex="1" parent="1">
          <mxGeometry x="-630" y="81.25" width="130" height="60" as="geometry" />
        </mxCell>
        <mxCell id="cm763DPiKegs-Cz6ihyl-36" value="Firewall" style="rounded=0;whiteSpace=wrap;html=1;align=center;verticalAlign=middle;fontFamily=Helvetica;fontSize=12;fillColor=#f8cecc;strokeColor=#b85450;" vertex="1" parent="1">
          <mxGeometry x="-761" y="50" width="62" height="122.5" as="geometry" />
        </mxCell>
        <mxCell id="cm763DPiKegs-Cz6ihyl-37" value="Client" style="shape=umlActor;verticalLabelPosition=bottom;verticalAlign=top;html=1;outlineConnect=0;align=center;fontFamily=Helvetica;fontSize=12;" vertex="1" parent="1">
          <mxGeometry x="-1134" y="30" width="30" height="60" as="geometry" />
        </mxCell>
        <mxCell id="cm763DPiKegs-Cz6ihyl-38" value="Internet" style="ellipse;shape=cloud;whiteSpace=wrap;html=1;align=center;verticalAlign=middle;fontFamily=Helvetica;fontSize=12;" vertex="1" parent="1">
          <mxGeometry x="-1034" y="57" width="169" height="103" as="geometry" />
        </mxCell>
        <mxCell id="cm763DPiKegs-Cz6ihyl-40" value="" style="endArrow=none;startArrow=classic;html=1;rounded=0;fontFamily=Helvetica;fontSize=12;fontColor=default;startSize=8;endSize=8;curved=0;entryX=1;entryY=0.5;entryDx=0;entryDy=0;exitX=0;exitY=0.5;exitDx=0;exitDy=0;startFill=1;endFill=0;" edge="1" parent="1" source="cm763DPiKegs-Cz6ihyl-35" target="cm763DPiKegs-Cz6ihyl-36">
          <mxGeometry width="50" height="50" relative="1" as="geometry">
            <mxPoint x="-649" y="66" as="sourcePoint" />
            <mxPoint x="-599" y="16" as="targetPoint" />
            <Array as="points" />
          </mxGeometry>
        </mxCell>
        <mxCell id="cm763DPiKegs-Cz6ihyl-43" value="" style="edgeLabel;html=1;align=center;verticalAlign=middle;resizable=0;points=[];fontSize=12;strokeColor=#0e8088;fontFamily=Helvetica;fontColor=default;fillColor=#CFE3E6;" vertex="1" connectable="0" parent="cm763DPiKegs-Cz6ihyl-40">
          <mxGeometry x="-0.2546" relative="1" as="geometry">
            <mxPoint as="offset" />
          </mxGeometry>
        </mxCell>
        <mxCell id="cm763DPiKegs-Cz6ihyl-45" value="443" style="text;html=1;align=center;verticalAlign=middle;resizable=0;points=[];autosize=1;strokeColor=none;fillColor=none;fontSize=12;fontFamily=Helvetica;fontColor=default;" vertex="1" parent="1">
          <mxGeometry x="-690" y="80" width="40" height="30" as="geometry" />
        </mxCell>
        <mxCell id="cm763DPiKegs-Cz6ihyl-46" value="DNS" style="rhombus;whiteSpace=wrap;html=1;strokeColor=#666666;align=center;verticalAlign=middle;fontFamily=Helvetica;fontSize=12;fontColor=#333333;fillColor=#f5f5f5;" vertex="1" parent="1">
          <mxGeometry x="-989.5" y="-70" width="80" height="80" as="geometry" />
        </mxCell>
        <mxCell id="cm763DPiKegs-Cz6ihyl-48" value="" style="endArrow=classic;startArrow=classic;html=1;rounded=0;fontFamily=Helvetica;fontSize=12;fontColor=default;startSize=8;endSize=8;curved=1;" edge="1" parent="1">
          <mxGeometry width="50" height="50" relative="1" as="geometry">
            <mxPoint x="-949" y="60" as="sourcePoint" />
            <mxPoint x="-949" y="20" as="targetPoint" />
          </mxGeometry>
        </mxCell>
        <mxCell id="cm763DPiKegs-Cz6ihyl-49" value="" style="endArrow=classic;startArrow=none;html=1;rounded=0;fontFamily=Helvetica;fontSize=12;fontColor=default;startSize=8;endSize=8;curved=0;startFill=0;" edge="1" parent="1">
          <mxGeometry width="50" height="50" relative="1" as="geometry">
            <mxPoint x="-1100" y="60" as="sourcePoint" />
            <mxPoint x="-1030" y="110" as="targetPoint" />
            <Array as="points" />
          </mxGeometry>
        </mxCell>
        <mxCell id="cm763DPiKegs-Cz6ihyl-51" value="app.dev" style="text;html=1;align=center;verticalAlign=middle;resizable=0;points=[];autosize=1;strokeColor=none;fillColor=none;fontSize=12;fontFamily=Helvetica;fontColor=default;" vertex="1" parent="1">
          <mxGeometry x="-1080" y="45" width="70" height="30" as="geometry" />
        </mxCell>
        <mxCell id="cm763DPiKegs-Cz6ihyl-53" value="" style="endArrow=classic;startArrow=none;html=1;rounded=0;fontFamily=Helvetica;fontSize=12;fontColor=default;startSize=8;endSize=8;curved=1;startFill=0;exitX=0.875;exitY=0.5;exitDx=0;exitDy=0;exitPerimeter=0;" edge="1" parent="1" source="cm763DPiKegs-Cz6ihyl-38">
          <mxGeometry width="50" height="50" relative="1" as="geometry">
            <mxPoint x="-865" y="108.5" as="sourcePoint" />
            <mxPoint x="-770" y="109" as="targetPoint" />
            <Array as="points" />
          </mxGeometry>
        </mxCell>
        <mxCell id="cm763DPiKegs-Cz6ihyl-54" value="&lt;span style=&quot;font-size: 12px;&quot;&gt;49.12.200.54:443&lt;/span&gt;" style="text;html=1;align=center;verticalAlign=middle;resizable=0;points=[];autosize=1;strokeColor=none;fillColor=none;fontSize=12;fontFamily=Helvetica;fontColor=default;" vertex="1" parent="1">
          <mxGeometry x="-881" y="70" width="120" height="30" as="geometry" />
        </mxCell>
        <mxCell id="cm763DPiKegs-Cz6ihyl-56" value="Client" style="shape=umlActor;verticalLabelPosition=bottom;verticalAlign=top;html=1;outlineConnect=0;align=center;fontFamily=Helvetica;fontSize=12;" vertex="1" parent="1">
          <mxGeometry x="-1134" y="148.5" width="30" height="60" as="geometry" />
        </mxCell>
        <mxCell id="cm763DPiKegs-Cz6ihyl-57" value="" style="endArrow=classic;startArrow=none;html=1;rounded=0;fontFamily=Helvetica;fontSize=12;fontColor=default;startSize=8;endSize=8;curved=0;startFill=0;" edge="1" parent="1">
          <mxGeometry width="50" height="50" relative="1" as="geometry">
            <mxPoint x="-1094" y="177" as="sourcePoint" />
            <mxPoint x="-1030" y="120" as="targetPoint" />
            <Array as="points" />
          </mxGeometry>
        </mxCell>
        <mxCell id="cm763DPiKegs-Cz6ihyl-58" value="nap.io" style="text;html=1;align=center;verticalAlign=middle;resizable=0;points=[];autosize=1;strokeColor=none;fillColor=none;fontSize=12;fontFamily=Helvetica;fontColor=default;" vertex="1" parent="1">
          <mxGeometry x="-1075" y="160" width="60" height="30" as="geometry" />
        </mxCell>
        <mxCell id="cm763DPiKegs-Cz6ihyl-59" value="app.dev API" style="rounded=0;whiteSpace=wrap;html=1;strokeColor=#6c8ebf;align=center;verticalAlign=middle;fontFamily=Helvetica;fontSize=12;fillColor=#dae8fc;" vertex="1" parent="1">
          <mxGeometry x="-360" y="-60" width="130" height="60" as="geometry" />
        </mxCell>
        <mxCell id="cm763DPiKegs-Cz6ihyl-60" value="app.dev API" style="rounded=0;whiteSpace=wrap;html=1;strokeColor=#6c8ebf;align=center;verticalAlign=middle;fontFamily=Helvetica;fontSize=12;fillColor=#dae8fc;" vertex="1" parent="1">
          <mxGeometry x="-360" y="10" width="130" height="60" as="geometry" />
        </mxCell>
        <mxCell id="cm763DPiKegs-Cz6ihyl-61" value="app.dev API" style="rounded=0;whiteSpace=wrap;html=1;strokeColor=#6c8ebf;align=center;verticalAlign=middle;fontFamily=Helvetica;fontSize=12;fillColor=#dae8fc;" vertex="1" parent="1">
          <mxGeometry x="-360" y="80" width="130" height="60" as="geometry" />
        </mxCell>
        <mxCell id="cm763DPiKegs-Cz6ihyl-62" value="nap.io API" style="rounded=0;whiteSpace=wrap;html=1;strokeColor=#6c8ebf;align=center;verticalAlign=middle;fontFamily=Helvetica;fontSize=12;fillColor=#dae8fc;" vertex="1" parent="1">
          <mxGeometry x="-360" y="190" width="130" height="60" as="geometry" />
        </mxCell>
        <mxCell id="cm763DPiKegs-Cz6ihyl-63" value="" style="endArrow=classic;html=1;rounded=0;fontFamily=Helvetica;fontSize=12;fontColor=default;startSize=8;endSize=8;curved=0;exitX=1;exitY=0.5;exitDx=0;exitDy=0;entryX=0;entryY=0.5;entryDx=0;entryDy=0;" edge="1" parent="1" source="cm763DPiKegs-Cz6ihyl-35" target="cm763DPiKegs-Cz6ihyl-59">
          <mxGeometry width="50" height="50" relative="1" as="geometry">
            <mxPoint x="-390" y="80" as="sourcePoint" />
            <mxPoint x="-340" y="30" as="targetPoint" />
            <Array as="points">
              <mxPoint x="-460" y="111" />
              <mxPoint x="-460" y="40" />
              <mxPoint x="-390" y="40" />
              <mxPoint x="-390" y="-30" />
            </Array>
          </mxGeometry>
        </mxCell>
        <mxCell id="cm763DPiKegs-Cz6ihyl-64" value="" style="edgeLabel;html=1;align=center;verticalAlign=middle;resizable=0;points=[];fontSize=12;strokeColor=#0e8088;fontFamily=Helvetica;fontColor=default;fillColor=#CFE3E6;" vertex="1" connectable="0" parent="cm763DPiKegs-Cz6ihyl-63">
          <mxGeometry x="0.1524" y="3" relative="1" as="geometry">
            <mxPoint as="offset" />
          </mxGeometry>
        </mxCell>
        <mxCell id="cm763DPiKegs-Cz6ihyl-65" value="" style="endArrow=classic;html=1;rounded=0;fontFamily=Helvetica;fontSize=12;fontColor=default;startSize=8;endSize=8;curved=1;entryX=0;entryY=0.5;entryDx=0;entryDy=0;" edge="1" parent="1" target="cm763DPiKegs-Cz6ihyl-60">
          <mxGeometry width="50" height="50" relative="1" as="geometry">
            <mxPoint x="-390" y="40" as="sourcePoint" />
            <mxPoint x="-340" y="30" as="targetPoint" />
          </mxGeometry>
        </mxCell>
        <mxCell id="cm763DPiKegs-Cz6ihyl-66" value="" style="endArrow=classic;html=1;rounded=0;fontFamily=Helvetica;fontSize=12;fontColor=default;startSize=8;endSize=8;curved=0;entryX=0;entryY=0.5;entryDx=0;entryDy=0;" edge="1" parent="1" target="cm763DPiKegs-Cz6ihyl-61">
          <mxGeometry width="50" height="50" relative="1" as="geometry">
            <mxPoint x="-390" y="40" as="sourcePoint" />
            <mxPoint x="-340" y="30" as="targetPoint" />
            <Array as="points">
              <mxPoint x="-390" y="110" />
            </Array>
          </mxGeometry>
        </mxCell>
        <mxCell id="cm763DPiKegs-Cz6ihyl-67" value="" style="endArrow=classic;html=1;rounded=0;fontFamily=Helvetica;fontSize=12;fontColor=default;startSize=8;endSize=8;curved=0;entryX=0;entryY=0.5;entryDx=0;entryDy=0;" edge="1" parent="1" target="cm763DPiKegs-Cz6ihyl-62">
          <mxGeometry width="50" height="50" relative="1" as="geometry">
            <mxPoint x="-460" y="110" as="sourcePoint" />
            <mxPoint x="-340" y="30" as="targetPoint" />
            <Array as="points">
              <mxPoint x="-460" y="220" />
            </Array>
          </mxGeometry>
        </mxCell>
        <mxCell id="cm763DPiKegs-Cz6ihyl-68" value="nap.io/*" style="text;html=1;align=center;verticalAlign=middle;resizable=0;points=[];autosize=1;strokeColor=none;fillColor=none;fontSize=12;fontFamily=Helvetica;fontColor=default;" vertex="1" parent="1">
          <mxGeometry x="-450" y="190" width="60" height="30" as="geometry" />
        </mxCell>
        <mxCell id="cm763DPiKegs-Cz6ihyl-69" value="app.dev/*" style="text;html=1;align=center;verticalAlign=middle;resizable=0;points=[];autosize=1;strokeColor=none;fillColor=none;fontSize=12;fontFamily=Helvetica;fontColor=default;" vertex="1" parent="1">
          <mxGeometry x="-460" y="10" width="70" height="30" as="geometry" />
        </mxCell>
      </root>
    </mxGraphModel>
  </diagram>
</mxfile>
